<svg xmlns="http://www.w3.org/2000/svg" xmlns:xlink="http://www.w3.org/1999/xlink" width="27.281" height="22" viewBox="0 0 27.281 22">
  <defs>
    <style>
      .cls-1 {
        fill: #cdcdcd;
        fill-rule: evenodd;
        filter: url(#filter);
      }
    </style>
    <filter id="filter" x="920" y="154" width="27.281" height="22" filterUnits="userSpaceOnUse">
      <feFlood result="flood" flood-color="#a8a8a8"/>
      <feComposite result="composite" operator="in" in2="SourceGraphic"/>
      <feBlend result="blend" in2="SourceGraphic"/>
    </filter>
  </defs>
  <path class="cls-1" d="M946.893,175.051a2.2,2.2,0,0,1-3.061.557l-9.042-6.258a2.191,2.191,0,0,1-.947-1.885,8.006,8.006,0,1,1,1.344-1.951,2.2,2.2,0,0,1,2.106.219l9.044,6.257A2.2,2.2,0,0,1,946.893,175.051ZM933.488,161a5.577,5.577,0,1,0-.9,4.175A5.535,5.535,0,0,0,933.488,161Z" transform="translate(-920 -154)"/>
</svg>
